<svg width="108" height="108" viewBox="0 0 108 108" fill="none" xmlns="http://www.w3.org/2000/svg">
<mask id="mask0_21427_73" style="mask-type:alpha" maskUnits="userSpaceOnUse" x="19" y="17" width="75" height="74">
<rect x="19.25" y="17" width="74" height="74" fill="#D9D9D9"/>
</mask>
<g mask="url(#mask0_21427_73)">
<path d="M62.4938 81.75C59.8215 81.75 57.6118 80.825 55.8646 78.975C54.1174 77.125 53.2438 74.7354 53.2438 71.8062C53.2438 67.9007 54.9396 64.4705 58.3312 61.5156C61.7229 58.5608 65.8854 56.8778 70.8188 56.4667C70.6646 53.6403 70.0608 51.5462 69.0073 50.1844C67.9538 48.8226 66.3736 48.1417 64.2667 48.1417C62.1083 48.1417 60.1556 48.8097 58.4083 50.1458C56.6611 51.4819 54.4 54.0514 51.625 57.8542C48.5417 62.0681 45.9851 64.9587 43.9552 66.526C41.9253 68.0934 39.7028 68.8771 37.2875 68.8771C34.5639 68.8771 32.4184 67.9906 30.851 66.2177C29.2837 64.4448 28.5 62.0167 28.5 58.9333C28.5 57.2889 29.091 55.1562 30.2729 52.5354C31.4549 49.9146 33.4333 46.3174 36.2083 41.7437C37.5444 39.7396 38.508 38.0951 39.099 36.8104C39.6899 35.5257 39.9854 34.4465 39.9854 33.5729C39.9854 33.0076 39.7927 32.558 39.4073 32.224C39.0219 31.8899 38.4694 31.7229 37.75 31.7229C37.1847 31.7229 36.6066 31.8514 36.0156 32.1083C35.4247 32.3653 34.7951 32.7764 34.1271 33.3417C33.5618 33.8042 32.9194 34.0483 32.2 34.074C31.4806 34.0997 30.8639 33.8299 30.35 33.2646C29.7847 32.6993 29.5278 32.0312 29.5792 31.2604C29.6306 30.4896 29.9389 29.8472 30.5042 29.3333C31.6861 28.3056 32.8681 27.5347 34.05 27.0208C35.2319 26.5069 36.4396 26.25 37.6729 26.25C39.8826 26.25 41.7326 26.9694 43.2229 28.4083C44.7132 29.8472 45.4583 31.6458 45.4583 33.8042C45.4583 35.3458 45.0858 36.9132 44.3406 38.5062C43.5955 40.0993 41.9896 42.8229 39.5229 46.6771C37.2104 50.2229 35.7073 52.8052 35.0135 54.424C34.3198 56.0427 33.9729 57.6743 33.9729 59.3187C33.9729 60.4493 34.3583 61.4128 35.1292 62.2094C35.9 63.0059 36.825 63.4042 37.9042 63.4042C38.6236 63.4042 39.3302 63.2243 40.024 62.8646C40.7177 62.5049 41.4757 61.8882 42.2979 61.0146C42.966 60.2951 43.724 59.4215 44.5719 58.3937C45.4198 57.366 46.4347 56.0812 47.6167 54.5396C51.0083 50.1201 53.976 47.0368 56.5198 45.2896C59.0635 43.5424 61.8771 42.6687 64.9604 42.6687C68.1979 42.6687 70.8316 43.8892 72.8615 46.3302C74.8913 48.7712 76.0347 52.0729 76.2917 56.2354H81.3021C82.0729 56.2354 82.7153 56.5052 83.2292 57.0448C83.7431 57.5844 84 58.2396 84 59.0104C84 59.7812 83.7431 60.4236 83.2292 60.9375C82.7153 61.4514 82.0729 61.7083 81.3021 61.7083H76.2917C75.8806 67.875 74.4417 72.7569 71.975 76.3542C69.5083 79.9514 66.3479 81.75 62.4938 81.75ZM62.725 76.2771C64.9347 76.2771 66.8104 74.941 68.3521 72.2687C69.8937 69.5965 70.7674 66.1278 70.9729 61.8625C67.5813 62.2222 64.6906 63.4299 62.301 65.4854C59.9115 67.541 58.7167 69.8278 58.7167 72.3458C58.7167 73.5792 59.0635 74.5427 59.7573 75.2365C60.451 75.9302 61.4403 76.2771 62.725 76.2771Z" fill="white"/>
</g>
</svg>
