<svg width="108" height="108" viewBox="0 0 108 108" fill="none" xmlns="http://www.w3.org/2000/svg">
<mask id="mask0_21454_1045" style="mask-type:alpha" maskUnits="userSpaceOnUse" x="30" y="30" width="48" height="48">
<rect x="30" y="30" width="48" height="48" fill="#D9D9D9"/>
</mask>
<g mask="url(#mask0_21454_1045)">
<path d="M58.05 72C56.3167 72 54.8833 71.4 53.75 70.2C52.6167 69 52.05 67.45 52.05 65.55C52.05 63.0167 53.15 60.7917 55.35 58.875C57.55 56.9583 60.25 55.8667 63.45 55.6C63.35 53.7667 62.9583 52.4083 62.275 51.525C61.5917 50.6417 60.5667 50.2 59.2 50.2C57.8 50.2 56.5333 50.6333 55.4 51.5C54.2667 52.3667 52.8 54.0333 51 56.5C49 59.2333 47.3417 61.1083 46.025 62.125C44.7083 63.1417 43.2667 63.65 41.7 63.65C39.9333 63.65 38.5417 63.075 37.525 61.925C36.5083 60.775 36 59.2 36 57.2C36 56.1333 36.3833 54.75 37.15 53.05C37.9167 51.35 39.2 49.0167 41 46.05C41.8667 44.75 42.4917 43.6833 42.875 42.85C43.2583 42.0167 43.45 41.3167 43.45 40.75C43.45 40.3833 43.325 40.0917 43.075 39.875C42.825 39.6583 42.4667 39.55 42 39.55C41.6333 39.55 41.2583 39.6333 40.875 39.8C40.4917 39.9667 40.0833 40.2333 39.65 40.6C39.2833 40.9 38.8667 41.0583 38.4 41.075C37.9333 41.0917 37.5333 40.9167 37.2 40.55C36.8333 40.1833 36.6667 39.75 36.7 39.25C36.7333 38.75 36.9333 38.3333 37.3 38C38.0667 37.3333 38.8333 36.8333 39.6 36.5C40.3667 36.1667 41.15 36 41.95 36C43.3833 36 44.5833 36.4667 45.55 37.4C46.5167 38.3333 47 39.5 47 40.9C47 41.9 46.7583 42.9167 46.275 43.95C45.7917 44.9833 44.75 46.75 43.15 49.25C41.65 51.55 40.675 53.225 40.225 54.275C39.775 55.325 39.55 56.3833 39.55 57.45C39.55 58.1833 39.8 58.8083 40.3 59.325C40.8 59.8417 41.4 60.1 42.1 60.1C42.5667 60.1 43.025 59.9833 43.475 59.75C43.925 59.5167 44.4167 59.1167 44.95 58.55C45.3833 58.0833 45.875 57.5167 46.425 56.85C46.975 56.1833 47.6333 55.35 48.4 54.35C50.6 51.4833 52.525 49.4833 54.175 48.35C55.825 47.2167 57.65 46.65 59.65 46.65C61.75 46.65 63.4583 47.4417 64.775 49.025C66.0917 50.6083 66.8333 52.75 67 55.45H70.25C70.75 55.45 71.1667 55.625 71.5 55.975C71.8333 56.325 72 56.75 72 57.25C72 57.75 71.8333 58.1667 71.5 58.5C71.1667 58.8333 70.75 59 70.25 59H67C66.7333 63 65.8 66.1667 64.2 68.5C62.6 70.8333 60.55 72 58.05 72ZM58.2 68.45C59.6333 68.45 60.85 67.5833 61.85 65.85C62.85 64.1167 63.4167 61.8667 63.55 59.1C61.35 59.3333 59.475 60.1167 57.925 61.45C56.375 62.7833 55.6 64.2667 55.6 65.9C55.6 66.7 55.825 67.325 56.275 67.775C56.725 68.225 57.3667 68.45 58.2 68.45Z" fill="#005320"/>
</g>
</svg>
