<svg width="108" height="108" viewBox="0 0 108 108" fill="none" xmlns="http://www.w3.org/2000/svg">
<mask id="mask0_21455_1111" style="mask-type:alpha" maskUnits="userSpaceOnUse" x="30" y="30" width="48" height="48">
<rect x="30" y="30" width="48" height="48" fill="#D9D9D9"/>
</mask>
<g mask="url(#mask0_21455_1111)">
<path d="M41.1 63.05L49 55.15C49.3 54.85 49.65 54.7083 50.05 54.725C50.45 54.7417 50.8065 54.9 51.1195 55.2C51.4065 55.5 51.55 55.85 51.55 56.25C51.55 56.65 51.4 57 51.1 57.3L42.15 66.25C41.85 66.55 41.5 66.7 41.1 66.7C40.7 66.7 40.35 66.55 40.05 66.25L35.05 61.25C34.75 60.95 34.6 60.6 34.6 60.2C34.6 59.8 34.75 59.45 35.05 59.15C35.35 58.85 35.7 58.7083 36.1 58.725C36.5 58.7417 36.85 58.8833 37.15 59.15L41.1 63.05ZM41.1 47.05L49 39.15C49.3 38.85 49.65 38.7083 50.05 38.725C50.45 38.7417 50.8065 38.9 51.1195 39.2C51.4065 39.5 51.55 39.85 51.55 40.25C51.55 40.65 51.4 41 51.1 41.3L42.15 50.25C41.85 50.55 41.5 50.7 41.1 50.7C40.7 50.7 40.35 50.55 40.05 50.25L35.05 45.25C34.75 44.95 34.6 44.6 34.6 44.2C34.6 43.8 34.75 43.45 35.05 43.15C35.35 42.85 35.7 42.7083 36.1 42.725C36.5 42.7417 36.85 42.8833 37.15 43.15L41.1 47.05ZM57.5 63.5C57.075 63.5 56.7188 63.3553 56.4315 63.066C56.1438 62.777 56 62.4187 56 61.991C56 61.5637 56.1438 61.2083 56.4315 60.925C56.7188 60.6417 57.075 60.5 57.5 60.5H72.5C72.925 60.5 73.2813 60.6447 73.569 60.934C73.8563 61.223 74 61.5813 74 62.009C74 62.4363 73.8563 62.7917 73.569 63.075C73.2813 63.3583 72.925 63.5 72.5 63.5H57.5ZM57.5 47.5C57.075 47.5 56.7188 47.3553 56.4315 47.066C56.1438 46.777 56 46.4187 56 45.991C56 45.5637 56.1438 45.2083 56.4315 44.925C56.7188 44.6417 57.075 44.5 57.5 44.5H72.5C72.925 44.5 73.2813 44.6447 73.569 44.934C73.8563 45.223 74 45.5813 74 46.009C74 46.4363 73.8563 46.7917 73.569 47.075C73.2813 47.3583 72.925 47.5 72.5 47.5H57.5Z" fill="#4F378B"/>
</g>
</svg>
