<svg width="108" height="108" viewBox="0 0 108 108" fill="none" xmlns="http://www.w3.org/2000/svg">
<mask id="mask0_21467_1144" style="mask-type:alpha" maskUnits="userSpaceOnUse" x="30" y="30" width="48" height="48">
<rect x="30" y="30" width="48" height="48" fill="#D9D9D9"/>
</mask>
<g mask="url(#mask0_21467_1144)">
<path d="M52.5 55.5H41.5C41.075 55.5 40.7188 55.3553 40.4315 55.066C40.1438 54.777 40 54.4187 40 53.991C40 53.5637 40.1438 53.2083 40.4315 52.925C40.7188 52.6417 41.075 52.5 41.5 52.5H52.5V41.5C52.5 41.075 52.6447 40.7187 52.934 40.431C53.223 40.1437 53.5813 40 54.009 40C54.4363 40 54.7917 40.1437 55.075 40.431C55.3583 40.7187 55.5 41.075 55.5 41.5V52.5H66.5C66.925 52.5 67.2813 52.6447 67.569 52.934C67.8563 53.223 68 53.5813 68 54.009C68 54.4363 67.8563 54.7917 67.569 55.075C67.2813 55.3583 66.925 55.5 66.5 55.5H55.5V66.5C55.5 66.925 55.3553 67.2812 55.066 67.5685C54.777 67.8562 54.4187 68 53.991 68C53.5637 68 53.2083 67.8562 52.925 67.5685C52.6417 67.2812 52.5 66.925 52.5 66.5V55.5Z" fill="#005320"/>
</g>
</svg>
